<svg width="50" height="50" viewBox="0 0 50 50" fill="none" xmlns="http://www.w3.org/2000/svg">
<path d="M32.2917 36.9795L34.9875 40.667C35.107 40.8618 35.2896 41.0098 35.5049 41.0863C35.7202 41.1629 35.9552 41.1634 36.1709 41.0878C37.8459 40.4899 41.9959 38.8691 45.4125 36.4003C45.5437 36.3025 45.65 36.1751 45.7227 36.0285C45.7955 35.8819 45.8327 35.7202 45.8313 35.5566C45.8334 17.1878 40.6271 11.9795 40.6271 11.9795C40.6271 11.9795 36.4604 9.58781 31.9896 8.86698C31.7744 8.83583 31.5549 8.87419 31.363 8.9765C31.1712 9.0788 31.017 9.23969 30.9229 9.43573L29.9959 11.3482C29.9959 11.3482 27.6771 10.8628 25 10.8628C22.3229 10.8628 20.0042 11.3482 20.0042 11.3482L19.0771 9.43573C18.9831 9.23969 18.8289 9.0788 18.637 8.9765C18.4452 8.87419 18.2256 8.83583 18.0105 8.86698C13.5438 9.58781 9.37712 11.9795 9.37712 11.9795C9.37712 11.9795 4.1667 17.1878 4.1667 35.5566C4.16474 35.7204 4.20145 35.8824 4.27385 36.0293C4.34625 36.1763 4.45229 36.3041 4.58337 36.4024C8.00212 38.8691 12.1521 40.4899 13.8271 41.0899C14.043 41.1653 14.2782 41.1645 14.4935 41.0875C14.7088 41.0106 14.8913 40.8621 15.0104 40.667L17.7084 36.9795" stroke="black" stroke-width="4" stroke-linecap="round" stroke-linejoin="round"/>
<path d="M36.4584 34.8965C36.4584 34.8965 31.6792 38.0215 25.0001 38.0215C18.3251 38.0215 13.5417 34.8965 13.5417 34.8965" stroke="black" stroke-width="4" stroke-linecap="round" stroke-linejoin="round"/>
<path d="M35.9375 25.5212C35.9375 27.8232 34.3062 29.6878 32.2917 29.6878C30.2792 29.6878 28.6458 27.8232 28.6458 25.5212C28.6458 23.2191 30.2792 21.3545 32.2917 21.3545C34.3062 21.3545 35.9375 23.2191 35.9375 25.5212ZM21.3542 25.5212C21.3542 27.8232 19.7229 29.6878 17.7083 29.6878C15.6958 29.6878 14.0625 27.8232 14.0625 25.5212C14.0625 23.2191 15.6958 21.3545 17.7083 21.3545C19.7229 21.3545 21.3542 23.2191 21.3542 25.5212Z" stroke="black" stroke-width="4"/>
</svg>
