<svg width="50" height="50" viewBox="0 0 50 50" fill="none" xmlns="http://www.w3.org/2000/svg">
<path d="M32.2916 36.9795L34.9874 40.667C35.1069 40.8618 35.2895 41.0098 35.5048 41.0863C35.7201 41.1629 35.9551 41.1634 36.1707 41.0878C37.8457 40.4899 41.9957 38.8691 45.4124 36.4003C45.5436 36.3025 45.6499 36.1751 45.7226 36.0285C45.7954 35.8819 45.8325 35.7202 45.8312 35.5566C45.8332 17.1878 40.627 11.9795 40.627 11.9795C40.627 11.9795 36.4603 9.58781 31.9895 8.86698C31.7743 8.83583 31.5548 8.87419 31.3629 8.9765C31.1711 9.0788 31.0169 9.23969 30.9228 9.43573L29.9957 11.3482C29.9957 11.3482 27.677 10.8628 24.9999 10.8628C22.3228 10.8628 20.0041 11.3482 20.0041 11.3482L19.077 9.43573C18.9829 9.23969 18.8288 9.0788 18.6369 8.9765C18.445 8.87419 18.2255 8.83583 18.0103 8.86698C13.5437 9.58781 9.37699 11.9795 9.37699 11.9795C9.37699 11.9795 4.16658 17.1878 4.16658 35.5566C4.16462 35.7204 4.20133 35.8824 4.27373 36.0293C4.34613 36.1763 4.45217 36.3041 4.58325 36.4024C8.00199 38.8691 12.152 40.4899 13.827 41.0899C14.0429 41.1653 14.2781 41.1645 14.4934 41.0875C14.7087 41.0106 14.8912 40.8621 15.0103 40.667L17.7082 36.9795" stroke="white" stroke-width="4" stroke-linecap="round" stroke-linejoin="round"/>
<path d="M36.4582 34.8965C36.4582 34.8965 31.679 38.0215 24.9998 38.0215C18.3248 38.0215 13.5415 34.8965 13.5415 34.8965" stroke="white" stroke-width="4" stroke-linecap="round" stroke-linejoin="round"/>
<path d="M35.9375 25.5212C35.9375 27.8232 34.3062 29.6878 32.2917 29.6878C30.2792 29.6878 28.6458 27.8232 28.6458 25.5212C28.6458 23.2191 30.2792 21.3545 32.2917 21.3545C34.3062 21.3545 35.9375 23.2191 35.9375 25.5212ZM21.3542 25.5212C21.3542 27.8232 19.7229 29.6878 17.7083 29.6878C15.6958 29.6878 14.0625 27.8232 14.0625 25.5212C14.0625 23.2191 15.6958 21.3545 17.7083 21.3545C19.7229 21.3545 21.3542 23.2191 21.3542 25.5212Z" stroke="white" stroke-width="4"/>
</svg>
