<svg width="50" height="50" viewBox="0 0 50 50" fill="none" xmlns="http://www.w3.org/2000/svg">
<path d="M24.9998 33.3337C27.21 33.3337 29.3296 32.4557 30.8924 30.8929C32.4552 29.3301 33.3332 27.2105 33.3332 25.0003C33.3332 22.7902 32.4552 20.6706 30.8924 19.1078C29.3296 17.545 27.21 16.667 24.9998 16.667C22.7897 16.667 20.6701 17.545 19.1073 19.1078C17.5445 20.6706 16.6665 22.7902 16.6665 25.0003C16.6665 27.2105 17.5445 29.3301 19.1073 30.8929C20.6701 32.4557 22.7897 33.3337 24.9998 33.3337Z" stroke="white" stroke-width="5" stroke-linecap="round" stroke-linejoin="round"/>
<path d="M6.25 33.3333V16.6667C6.25 13.904 7.34747 11.2545 9.30097 9.30097C11.2545 7.34747 13.904 6.25 16.6667 6.25H33.3333C36.096 6.25 38.7455 7.34747 40.699 9.30097C42.6525 11.2545 43.75 13.904 43.75 16.6667V33.3333C43.75 36.096 42.6525 38.7455 40.699 40.699C38.7455 42.6525 36.096 43.75 33.3333 43.75H16.6667C13.904 43.75 11.2545 42.6525 9.30097 40.699C7.34747 38.7455 6.25 36.096 6.25 33.3333Z" stroke="white" stroke-width="5"/>
<path d="M36.4585 13.563L36.4793 13.54" stroke="white" stroke-width="5" stroke-linecap="round" stroke-linejoin="round"/>
</svg>
