<svg width="108" height="22" viewBox="0 0 108 22" fill="none" xmlns="http://www.w3.org/2000/svg">
<path d="M21.626 14.918C21.3698 15.346 21.2221 15.5819 21.168 15.6182C19.3777 18.7413 17.8644 20.8265 16.626 21.875C16.6013 21.8752 16.5766 21.877 16.5518 21.877C15.5572 21.877 14.7049 21.7037 13.9932 21.3613C13.9893 21.2722 13.9854 21.1785 13.9854 21.0801V20.9014C13.9854 19.9272 14.2703 18.6975 14.8447 17.2168C14.9671 18.2979 15.5363 18.8389 16.5518 18.8389C17.7062 18.8388 18.2831 18.1397 18.2832 16.7422V15.5654C19.5385 15.0905 20.6546 14.7391 21.626 14.5049V14.918ZM47.6016 14.9746C47.5519 15.3758 47.5244 15.7606 47.5244 16.1289V16.1885C47.6194 17.5416 48.0231 18.2185 48.7471 18.2188H48.9258C49.2771 18.2186 49.6812 17.843 50.1436 17.0967C50.2367 18.2578 50.809 18.8389 51.8613 18.8389C53.0157 18.8388 53.5927 18.1396 53.5928 16.7422V16.7354C54.0372 16.4695 54.5397 16.0637 55.1016 15.5186C55.1011 15.5602 55.0996 15.6016 55.0996 15.6426V15.8799C55.2302 17.4826 55.7405 18.2783 56.6309 18.2783C56.6711 18.2783 56.7116 18.2726 56.7529 18.2695C56.5494 19.1576 56.1756 19.8946 55.6289 20.4795C54.758 21.4112 53.5019 21.8769 51.8613 21.877C50.2208 21.877 48.9647 21.4111 48.0938 20.4795C47.2227 19.5477 46.7871 18.2308 46.7871 16.5293V15.1299C47.107 15.0802 47.3784 15.0278 47.6016 14.9746ZM79.3018 3.36621C79.4629 3.95563 79.5449 4.61584 79.5449 5.34766V16.5293C79.5449 18.2308 79.1093 19.5477 78.2383 20.4795C77.3673 21.4111 76.1113 21.877 74.4707 21.877C73.4807 21.8769 72.6316 21.7055 71.9219 21.3662C72.2962 20.4974 72.7175 19.4851 73.1846 18.3281C73.4731 18.668 73.9014 18.8388 74.4707 18.8389C75.6252 18.8389 76.2031 18.1397 76.2031 16.7422V10.2324C77.2999 6.96132 78.3313 4.67294 79.3018 3.36621ZM102.926 0C104.566 0 105.822 0.466683 106.693 1.39844C107.564 2.33014 108 3.64634 108 5.34766V16.5293C108 18.2308 107.564 19.5477 106.693 20.4795C105.822 21.411 104.566 21.877 102.926 21.877C101.285 21.8769 100.029 21.4112 99.1582 20.4795C98.2872 19.5477 97.8516 18.2308 97.8516 16.5293V5.34766C97.8516 3.64654 98.2875 2.33012 99.1582 1.39844C100.029 0.466733 101.285 6.74562e-05 102.926 0ZM4.92285 0.304688C6.58364 0.304758 7.82973 0.750411 8.66016 1.6416C9.49034 2.53282 9.90524 3.83917 9.90527 5.56055V7.65723C9.90527 9.37896 9.49064 10.6859 8.66016 11.5771C7.82973 12.4683 6.58364 12.914 4.92285 12.9141H3.34277V21.5732H0V0.304688H4.92285ZM27.2285 21.5732H23.8857V14.042C24.5048 13.9075 25.619 13.8097 27.2285 13.7461V21.5732ZM30.3486 13.8018C30.6421 13.828 30.9142 13.8583 31.165 13.8975C31.082 15.6303 31.0459 16.5799 31.0459 16.7227C31.0459 17.1026 31.0819 17.7794 31.165 18.7529C31.3389 19.8945 31.5604 20.8347 31.8271 21.5732H30.7832C30.6617 21.2289 30.5806 20.9044 30.54 20.6006C30.4995 20.2967 30.4795 19.7498 30.4795 18.96V15.0713C30.4795 14.5701 30.4348 14.1469 30.3486 13.8018ZM41.6582 14.7451C41.5484 15.1554 41.4932 15.5573 41.4932 15.9512V16.4375C41.5866 17.0624 41.7675 17.5316 42.0361 17.8477V21.5732H38.6943V16.9131C39.0251 16.526 39.3575 16.0835 39.6885 15.583C39.6885 15.2981 40.0218 15.0725 40.6748 14.9062C41.0679 14.8473 41.3953 14.7915 41.6582 14.7451ZM62.5381 9.26758H66.8525V12.3057H62.5381V21.5732H59.1953V16.9238C59.8617 16.3385 60.6024 15.5645 61.415 14.5977C61.415 14.3246 61.2371 14.1229 60.8691 13.9805L60.7383 14.04C60.1826 14.6751 59.6675 15.2243 59.1953 15.6895V6.31836C60.4252 6.14485 61.54 6.00143 62.5381 5.89258V9.26758ZM85.1475 18.5342H85.7988C85.5188 19.8415 85.3377 20.8545 85.2568 21.5732H81.8057V13.7891C83.0121 10.3636 84.1248 7.61193 85.1475 5.53711V18.5342ZM95.5918 21.5732H92.25V18.0137C93.5948 17.4201 94.7078 16.5466 95.5918 15.3945V21.5732ZM90.6475 18.5342V21.5732H86.2939C86.4027 20.7376 86.5993 19.7247 86.8799 18.5342H90.6475ZM32.6035 11.2832C32.9027 11.5357 33.1365 11.8562 33.3047 12.2451C33.649 12.9945 33.8213 13.9972 33.8213 15.2529V18.9902C33.8213 19.5979 33.8423 20.0946 33.8828 20.4795C33.9233 20.844 34.0245 21.2087 34.1865 21.5732H32.6621C32.2333 20.3866 32.0196 18.9346 32.0195 17.21C32.067 16.1415 32.1259 15.0721 32.209 14.0273C32.8139 14.1459 33.1703 14.2059 33.2539 14.2061C33.3726 14.2061 33.4326 14.17 33.4326 14.0869V13.8975C33.2189 13.4938 32.8505 13.292 32.3281 13.292C32.3281 13.0902 32.3759 12.6978 32.459 12.1279C32.5091 11.8407 32.5557 11.5588 32.6035 11.2832ZM21.5977 17.2314C21.4914 18.5972 21.0665 19.6802 20.3193 20.4795C19.8573 20.9737 19.286 21.3343 18.6074 21.5664C19.7125 20.0746 20.7116 18.6307 21.5977 17.2314ZM16.5518 0C18.1924 2.06341e-05 19.4484 0.466686 20.3193 1.39844C21.1901 2.33013 21.6259 3.64647 21.626 5.34766V13.4502C20.4274 13.7261 19.3135 14.0582 18.2832 14.4404V5.13574C18.2832 3.73813 17.7063 3.03911 16.5518 3.03906C15.3972 3.03906 14.8193 3.73808 14.8193 5.13574V14.6113C13.6104 16.7808 13 18.7276 13 20.4629V20.6904C12.9262 20.6225 12.8532 20.5533 12.7842 20.4795C11.9132 19.5477 11.4775 18.2308 11.4775 16.5293V5.34766C11.4776 3.6464 11.9133 2.33013 12.7842 1.39844C13.6552 0.466665 14.911 0 16.5518 0ZM74.6533 0.0898438C74.8667 0.173308 74.9619 0.56488 74.9619 1.26465C74.9619 1.78094 74.919 2.3812 74.8369 3.06543C74.7221 3.04792 74.5999 3.03906 74.4707 3.03906C73.3163 3.03915 72.7393 3.73817 72.7393 5.13574V12.2578C71.7328 15.8228 70.9973 18.4969 70.5312 20.2822C69.7753 19.3651 69.3965 18.1144 69.3965 16.5293V5.34766C69.3965 4.27477 69.5696 3.35472 69.916 2.58789C71.5562 0.922762 73.1421 0.0898438 74.6533 0.0898438ZM102.926 3.03906C101.771 3.03921 101.194 3.73823 101.194 5.13574V16.7422C101.194 18.1396 101.771 18.8387 102.926 18.8389C104.08 18.8389 104.658 18.1397 104.658 16.7422V5.13574C104.658 3.73808 104.08 3.03906 102.926 3.03906ZM56.9355 16.5293C56.9355 16.8499 56.9196 17.1569 56.8887 17.4502C56.655 17.5492 56.447 17.6016 56.2627 17.6016C55.9778 17.6016 55.835 17.1143 55.835 16.1289C55.835 15.6837 55.8641 15.1971 55.9209 14.6689C55.943 14.6448 55.967 14.6222 55.9893 14.5977C55.974 14.5595 55.9573 14.5238 55.9414 14.4893C56.0976 13.1604 56.4279 11.5776 56.9355 9.73926V16.5293ZM51.8613 0C53.5019 5.3848e-05 54.758 0.466719 55.6289 1.39844C56.4997 2.33012 56.9355 3.64652 56.9355 5.34766V5.87207C55.9991 6.01409 54.8865 6.12128 53.5928 6.19824V5.13574C53.5928 3.7382 53.0157 3.03918 51.8613 3.03906C50.7067 3.03906 50.1289 3.73808 50.1289 5.13574V15.2744C49.4096 16.7861 48.8273 17.5415 48.3799 17.542C48.2969 17.032 48.2608 16.7234 48.2607 16.6162C48.2607 15.6783 48.4984 14.2884 48.9971 12.4482C48.8073 12.1636 48.6052 12.0217 48.3799 12.0215H48.3203C48.068 12.7448 47.8778 13.434 47.7461 14.0859C47.3667 14.2195 47.048 14.3207 46.7871 14.3867V5.34766C46.7872 3.64635 47.2228 2.33014 48.0938 1.39844C48.9648 0.466665 50.2206 0 51.8613 0ZM95.5918 13.9834C95.5892 13.9824 95.5866 13.9815 95.584 13.9805C95.4059 13.9805 95.311 14.0872 95.2754 14.2891C94.1928 15.6972 93.1816 16.6548 92.25 17.165V14.7363C93.6524 14.4122 94.3612 13.8305 94.3613 12.9951C94.3613 12.3065 93.9691 11.8193 93.1855 11.5225C92.9652 11.5225 92.6543 11.6475 92.25 11.9023V0.304688H95.5918V13.9834ZM56.9355 6.81836C55.9754 9.80724 55.3951 12.2556 55.1875 14.1689C54.5842 14.7936 54.0538 15.2908 53.5928 15.6572V6.90137C54.5257 6.84858 55.64 6.76078 56.9355 6.61914V6.81836ZM39.3926 12.1992C39.6297 12.1994 39.7598 12.366 39.7598 12.6982C39.7597 13.1967 39.594 13.7902 39.2617 14.4785C39.0683 14.5548 38.8792 14.6339 38.6943 14.7139V12.3184C38.9201 12.2393 39.153 12.1992 39.3926 12.1992ZM45.5303 3.34277H42.0361V13.7266C41.9958 13.8122 41.9577 13.8975 41.9219 13.9824C41.5124 13.9883 40.9811 14.0695 40.3066 14.2295C40.4253 13.7784 40.4961 13.4339 40.4961 13.1846C40.3417 12.0807 39.8315 11.5226 38.9531 11.5225C38.8661 11.5225 38.7796 11.5272 38.6943 11.5361V7.18066C39.5235 5.13371 39.9385 3.30855 39.9385 1.7041V1.1582C39.9385 0.820244 39.8636 0.536781 39.7148 0.304688H45.5303V3.34277ZM93.4941 12.1992C93.5772 12.3773 93.625 12.4961 93.625 12.5674C93.625 13.1535 93.1662 13.6015 92.25 13.9209V13.2021C92.8101 12.5357 93.2228 12.1993 93.4941 12.1992ZM31.8916 0.96875C32.1614 1.12507 32.4002 1.30798 32.6064 1.51953C32.7692 1.68233 32.9137 1.86467 33.043 2.06445C32.4089 5.80146 31.94 8.67297 31.6318 10.6816C31.6222 10.6856 31.6132 10.6914 31.6035 10.6953V10.7568C31.609 10.7585 31.6146 10.76 31.6201 10.7617C31.4675 11.7594 31.3535 12.5389 31.2832 13.1016C30.8667 13.0313 30.4034 12.9743 29.8936 12.9277C29.5782 12.6157 29.0758 12.458 28.3828 12.458H27.2285V12.8076C25.9184 12.8659 24.8826 12.943 24.1123 13.042C25.2379 11.1062 26.2773 9.36029 27.2285 7.80078V9.41992H28.4434C29.1117 9.41992 29.6085 9.24761 29.9326 8.90332C30.277 8.55897 30.4492 7.98114 30.4492 7.1709V5.53027C30.4492 4.7606 30.307 4.20372 30.0234 3.85938C29.9673 3.78602 29.9028 3.72179 29.832 3.66406C29.9706 3.45235 30.1053 3.24585 30.2383 3.0459C30.8695 2.16795 31.4213 1.4764 31.8916 0.96875ZM28.8389 0.304688C29.5358 0.304704 30.156 0.372122 30.7002 0.504883C30.534 0.696053 30.36 0.905478 30.1797 1.13477C29.6923 1.82506 29.1898 2.5614 28.6709 3.34277H27.2285V5.56934C26.172 7.23679 25.0572 9.0732 23.8857 11.0781V0.304688H28.8389ZM85.1475 3.04004C84.1231 4.79599 83.019 7.2909 81.8359 10.5254H81.8057V10.3115C82.3195 7.68127 82.5713 5.69066 82.5713 4.32812C82.5713 3.78204 82.5123 3.24778 82.3936 2.7373C82.2246 2.29 82.0279 1.93681 81.8057 1.67676V0.304688H85.1475V3.04004ZM3.34277 9.875H4.92285C5.46937 9.87493 5.87442 9.72348 6.1377 9.41992C6.42125 9.11611 6.56345 8.59922 6.56348 7.87012V5.34766C6.56343 4.61876 6.42114 4.10263 6.1377 3.79883C5.87443 3.49506 5.46956 3.34285 4.92285 3.34277H3.34277V9.875ZM33.7549 4.37012C33.7787 4.63233 33.791 4.9078 33.791 5.19629V6.50293C33.791 7.94041 33.4786 9.03169 32.8604 9.78223C33.2487 7.5161 33.5487 5.71269 33.7549 4.37012ZM75.5254 0.0732422C76.6601 0.236371 77.5644 0.6775 78.2383 1.39844C78.4442 1.61869 78.625 1.86077 78.7822 2.12402C78.2325 2.69534 77.694 3.51244 77.1699 4.57715C76.9001 5.24791 76.5794 6.07829 76.2031 7.06641V5.13574C76.2031 4.4848 76.0756 3.98645 75.8252 3.63867C75.9053 2.9662 75.9473 2.37664 75.9473 1.87012C75.9472 1.27666 75.8634 0.790146 75.6973 0.398438C75.6449 0.281066 75.5871 0.172995 75.5254 0.0732422ZM68.0371 2.89551C67.9187 3.04437 67.8079 3.19378 67.7031 3.34277H62.5381V5.17578C61.5503 5.2781 60.4374 5.41116 59.1953 5.57422V3.39941C59.346 3.14587 59.4913 2.94818 59.6348 2.80859V2.74902C59.5398 2.55907 59.397 2.41627 59.207 2.32129H59.1953V0.304688H68.0371V2.89551ZM39.2021 0.670898V1.21777C39.2021 2.08057 39.032 3.14741 38.6943 4.41895V3.34277H38.0596C38.4177 2.27724 38.7783 1.38605 39.1426 0.670898H39.2021ZM38.373 0.304688C38.2094 0.561147 38.0329 0.904318 37.8486 1.33594C37.6174 2.01673 37.4003 2.68614 37.1943 3.34277H35.2002V0.304688H38.373Z" fill="#FEAD4B"/>
</svg>
