<svg width="68" height="68" viewBox="0 0 68 68" fill="none" xmlns="http://www.w3.org/2000/svg">
<rect width="68" height="68" fill="#4FF29A"/>
<path d="M35.5625 46.5V52.75H44.9375C45.3519 52.75 45.7493 52.9146 46.0424 53.2076C46.3354 53.5007 46.5 53.8981 46.5 54.3125C46.5 54.7269 46.3354 55.1243 46.0424 55.4174C45.7493 55.7104 45.3519 55.875 44.9375 55.875H23.0625C22.6481 55.875 22.2507 55.7104 21.9576 55.4174C21.6646 55.1243 21.5 54.7269 21.5 54.3125C21.5 53.8981 21.6646 53.5007 21.9576 53.2076C22.2507 52.9146 22.6481 52.75 23.0625 52.75H32.4375V46.5H18.375C16.7174 46.5 15.1277 45.8415 13.9556 44.6694C12.7835 43.4973 12.125 41.9076 12.125 40.25V21.5C12.125 19.8424 12.7835 18.2527 13.9556 17.0806C15.1277 15.9085 16.7174 15.25 18.375 15.25H49.625C51.2826 15.25 52.8723 15.9085 54.0444 17.0806C55.2165 18.2527 55.875 19.8424 55.875 21.5V40.25C55.875 41.9076 55.2165 43.4973 54.0444 44.6694C52.8723 45.8415 51.2826 46.5 49.625 46.5H35.5625ZM18.375 18.375C17.5462 18.375 16.7513 18.7042 16.1653 19.2903C15.5792 19.8763 15.25 20.6712 15.25 21.5V40.25C15.25 41.0788 15.5792 41.8737 16.1653 42.4597C16.7513 43.0458 17.5462 43.375 18.375 43.375H49.625C50.4538 43.375 51.2487 43.0458 51.8347 42.4597C52.4208 41.8737 52.75 41.0788 52.75 40.25V21.5C52.75 20.6712 52.4208 19.8763 51.8347 19.2903C51.2487 18.7042 50.4538 18.375 49.625 18.375H18.375Z" fill="#00A24A"/>
</svg>
