<svg width="675" height="118" viewBox="0 0 675 118" fill="none" xmlns="http://www.w3.org/2000/svg">
<path d="M651.259 91.0537C647.877 100.419 643.367 107.183 637.73 111.346C632.181 115.595 625.243 117.503 616.918 117.069V101.46C619.944 101.518 622.539 101.106 624.706 100.228C625.304 101.256 626.249 101.909 627.543 102.181H627.737L628.746 101.987C634.215 97.8761 636.968 92.2518 636.968 85.1543C636.968 79.9184 635.571 72.9757 632.74 64.2881L636.153 64.6758C637.618 64.6758 639.019 64.4804 640.366 64.0947L641.12 66.0449C640.964 66.8158 640.886 67.5618 640.886 68.2832V69.0977C640.886 71.5023 642.398 73.0148 645.501 73.7129H645.889C646.819 73.7129 647.557 73.5967 648.1 73.3252C653.995 70.9981 658.61 67.1192 661.945 61.6895C661.945 60.7976 661.324 60.1382 660.122 59.6729C659.541 59.673 659.231 60.0225 659.114 60.6816C653.568 67.8953 648.604 71.5017 644.299 71.502H643.483L643.29 70.1064V69.9121C643.29 67.9729 644.027 65.4903 645.501 62.5039C645.617 62.504 645.85 62.5434 646.082 62.6982C652.753 61.845 656.128 59.7507 656.128 56.4541C656.128 54.2046 654.848 52.6141 652.288 51.6445C651.512 51.6445 650.388 52.1105 648.914 53.0801C648.425 53.6188 647.957 54.1497 647.513 54.6748L656.981 26.0146H674.933L651.259 91.0537ZM631.538 67.0811C633.555 74.1786 634.563 79.7249 634.563 83.7197C634.563 90.5069 632.004 95.8204 626.923 99.7764H626.535L626.476 99.3486C626.862 99.1171 627.232 98.8682 627.584 98.5986C630.272 96.6041 632.397 93.3952 633.958 88.9727L629.018 77.3086C629.673 74.2017 630.448 70.7926 631.345 67.0811H631.538ZM152.644 66C155.023 73.77 161.079 77.6553 170.815 77.6553C177.232 77.6552 182.089 75.488 185.384 71.1523L198.912 78.9561C192.495 88.2349 183.042 92.875 170.555 92.875C159.802 92.8749 151.174 89.6228 144.67 83.1191C139.881 78.3299 136.857 72.6231 135.595 66H152.644ZM291.927 66C291.301 73.964 288.353 80.2778 283.079 84.9404C277.096 90.2301 269.421 92.8749 260.056 92.875C245.747 92.875 235.731 87.1077 230.008 75.5742L245.486 66.7295C248.348 72.4529 253.205 75.3145 260.056 75.3145C264.825 75.3144 268.38 74.1872 270.722 71.9326C272.358 70.3574 273.421 68.3795 273.914 66H291.927ZM315.079 66C315.901 68.0077 317.09 69.812 318.649 71.4121C322.031 74.794 326.237 76.4854 331.267 76.4854C336.296 76.4853 340.502 74.794 343.884 71.4121C345.484 69.812 346.705 68.0077 347.548 66H365.006C363.691 72.4491 360.597 78.1127 355.721 82.9893C349.043 89.5796 340.892 92.875 331.267 92.875C321.641 92.875 313.49 89.5796 306.812 82.9893C301.999 78.1127 298.946 72.4491 297.647 66H315.079ZM386.882 66C387.213 69.3137 388.347 71.942 390.289 73.8838C392.63 76.1383 395.752 77.2656 399.654 77.2656C403.99 77.2656 407.459 75.9215 410.061 73.2334C411.807 71.4284 412.967 69.017 413.541 66H430.743V91.0537H413.963V83.7695C409.887 89.8396 403.427 92.8749 394.582 92.875C387.471 92.875 381.573 90.4902 376.891 85.7207C372.304 80.9609 370.006 74.3871 369.997 66H386.882ZM608.655 78.9561C602.304 88.139 592.981 92.7752 580.685 92.8701C582.411 88.4107 584.031 83.1716 585.546 77.1523C589.553 76.2823 592.747 74.2833 595.127 71.1523L608.655 78.9561ZM582.571 77.5781C581.054 83.4617 579.428 88.5375 577.694 92.8066C574.077 92.6211 570.716 92.0422 567.612 91.0703C571.066 87.1302 575.455 82.6576 580.781 77.6523C581.392 77.6475 581.989 77.6227 582.571 77.5781ZM42.4043 91.0537H24.4541V66H42.4043V91.0537ZM86.5059 91.0537H69.7256V66H86.5059V91.0537ZM130.472 91.0537H113.692V66H130.472V91.0537ZM476.159 43.4453C471.043 42.8383 466.447 43.8791 462.371 46.5674C458.382 49.2556 456.388 53.7214 456.388 59.9648V91.0537H439.607V66H450.417L443.685 78.2783L446.315 79.7217L454.815 64.2217L455.193 63.5322L447.842 48.8291L445.158 50.1709L450.572 61H439.607V26.0146H456.388V37.2021C457.949 33.0397 460.507 29.9172 464.062 27.8359C467.705 25.7549 471.737 24.7139 476.159 24.7139V43.4453ZM479.469 69.2324C479.791 72.7412 480.598 76.0212 481.907 79.1045C485.441 85.6027 489.345 89.5782 493.637 91.0537H479.469V69.2324ZM527.053 26.7607C529.301 27.9065 531.348 29.4354 533.191 31.3486C534.933 33.1227 536.35 35.1488 537.444 37.4268C529.583 62.1043 525.157 79.9958 524.14 91.0537H523.436V60.9453C526.489 52.5062 528.022 44.1141 528.022 35.7812V35.3936C528.022 32.2853 527.692 29.4133 527.053 26.7607ZM531.707 67.0811C533.724 74.1785 534.731 79.725 534.731 83.7197C534.731 86.3905 534.333 88.8323 533.543 91.0537H526.827C527.456 85.3966 529.017 77.4111 531.513 67.0811H531.707ZM540.215 91.0537H536.415C536.894 89.2162 537.137 87.2497 537.137 85.1543C537.137 79.9184 535.74 72.9757 532.909 64.2881L536.322 64.6758C537.672 64.6758 538.966 64.5098 540.215 64.1826V91.0537ZM554.163 55.252C554.163 56.2612 553.581 61.3421 552.379 70.4941C552.379 71.5412 553.116 72.2785 554.59 72.7051C555.366 72.7038 557.499 67.9716 560.989 58.4707H561.183V58.665C560.911 60.9531 560.795 62.7761 560.795 64.0947V64.9092C561.317 68.7481 562.627 70.7591 564.725 70.9102C567.305 74.595 571.315 76.7673 576.755 77.4326C571.891 82.0601 567.858 86.2464 564.655 89.9932C560.798 88.3794 557.384 86.0896 554.413 83.1191C550.889 79.5953 548.322 75.5743 546.707 71.0576C546.851 70.7664 546.997 70.4499 547.143 70.1064C550.439 61.3799 552.806 56.3763 554.163 55.0576V55.252ZM515.631 24.1943C518.627 24.1944 521.399 24.6192 523.948 25.4658C524.516 27.8801 524.803 30.6585 524.803 33.8037C524.803 38.5793 524.198 43.6451 522.996 48.9951C522.461 46.6668 521.437 44.7735 519.923 43.3154C517.581 40.9741 514.46 39.8037 510.558 39.8037C506.222 39.8037 502.753 41.1477 500.151 43.8359C497.55 46.5242 496.249 50.5563 496.249 55.9326V88.8916C496.006 88.9083 495.763 88.917 495.521 88.917C494.59 88.8007 493.659 88.5676 492.729 88.335C485.903 84.5341 482.489 77.6693 482.489 67.6631C482.489 58.7426 485.049 49.3948 490.13 39.6211H490.323V39.8154C489.78 42.9957 489.509 45.711 489.509 48.0381C489.509 54.8251 490.712 58.2383 493.116 58.2383H493.31L493.931 57.8506C493.116 55.0581 492.729 52.3811 492.729 49.8213C493.465 39.8927 494.629 34.5021 496.142 33.5713C496.142 33.2998 496.064 33.0276 495.947 32.7949C495.947 32.5716 496.048 32.2279 496.249 31.7637V33.2998C500.325 27.2295 506.786 24.1943 515.631 24.1943ZM629.023 65.5576C628.345 68.1611 627.73 70.6338 627.183 72.9766L625.544 69.1074C626.616 68.0973 627.775 66.9136 629.023 65.5576ZM578.997 24.1943C588.305 24.1943 596.001 27.3328 602.089 33.6074C599.086 44.0788 597.391 52.9777 597.021 60.3037C596.398 60.4504 594.138 62.1597 590.197 65.4287H588.123C588.69 62.4304 589.342 58.4567 590.116 53.4678C590.116 53.0944 589.938 52.7439 589.589 52.4209H595.127C594.173 47.9983 592.179 44.7031 589.144 42.5352C586.195 40.3672 582.813 39.2832 578.997 39.2832C574.488 39.2833 570.759 40.4536 567.811 42.7949C564.862 45.0496 562.911 48.2585 561.957 52.4209H587.599C585.375 58.0316 583.245 62.369 581.203 65.4287H573.627C573.923 62.7858 574.664 59.5352 575.882 55.6777C575.339 54.5921 574.68 54.0488 573.865 54.0488H573.478C572.816 56.161 572.296 58.101 571.911 59.8672H571.81C570.371 62.1719 569.091 64.0247 567.971 65.4287H563.207C563.248 64.287 563.513 60.9622 563.976 55.4844C563.976 54.1657 563.199 53.3121 561.57 52.8467H561.377C560.136 53.4672 558.39 56.9196 556.18 63.2803H555.985V63.0859C556.528 58.9757 556.762 56.6101 556.762 56.0664C556.451 53.2739 555.52 51.877 553.969 51.877H553.775C551.91 51.877 549.148 56.7905 545.459 66.6162C545.342 66.0552 545.238 65.4875 545.146 64.9131C546.701 57.5333 548.03 53.8555 549.16 53.8555C549.16 52.9634 548.5 52.3816 547.143 52.0713H546.755C546.048 52.6986 545.385 53.8213 544.77 55.4404C545.384 47.0069 548.554 39.8868 554.283 34.0801C560.7 27.4897 568.938 24.1944 578.997 24.1943ZM634.057 47.7881C632.767 52.0545 631.6 56.0811 630.553 59.8672H630.452C628.158 62.4349 626.119 64.5657 624.341 66.2676L619.091 53.873C619.129 53.7386 619.167 53.6035 619.205 53.4678C619.009 53.1545 618.804 52.8944 618.589 52.6865L610.558 33.7256C611.514 30.883 612.261 28.313 612.796 26.0146H625.633L634.057 47.7881ZM585.694 63.9004C585.596 64.41 585.495 64.9196 585.393 65.4287H584.549C584.865 64.8837 585.183 64.3099 585.501 63.707H585.694V63.9004ZM596.942 64.6758C596.965 64.9325 596.992 65.1838 597.021 65.4287H594.776C595.519 64.8196 596.241 64.236 596.942 63.6768V64.6758ZM607.783 41.2646C610.532 46.3343 611.907 52.0904 611.907 58.5342C611.907 60.2365 611.771 62.0191 611.504 63.8818C610.989 64.4292 610.486 64.9452 609.994 65.4287H599.394C599.377 65.1859 599.361 64.9346 599.347 64.6758C599.347 60.682 599.618 58.6658 600.161 58.665C603.211 52.1998 605.752 46.3996 607.783 41.2646ZM555.985 63.9004H555.792V63.4736H555.985V63.9004ZM538.967 41.459C539.798 44.3563 540.215 47.5764 540.215 51.1201V61.4141C538.412 62.1363 536.711 62.5038 535.12 62.5039C534.849 62.5039 534.111 62.4266 532.909 62.2715C535.029 54.0647 537.046 47.1271 538.967 41.459ZM639.421 61.6523C637.849 62.2172 636.357 62.5039 634.951 62.5039C634.68 62.5039 633.942 62.4266 632.74 62.2715C633.713 58.504 634.668 55.0049 635.599 51.7725L639.421 61.6523ZM494.589 26.0146C493.596 28.0074 492.98 29.6586 492.729 30.9727C490.867 32.0973 489.121 33.9586 487.531 36.5957C482.792 45.2072 480.121 53.5896 479.469 61.7168V26.0146H494.589ZM66.9893 17.1699H42.4043V61H24.4541V17.1699H0V0H66.9893V17.1699ZM86.5059 33.2998C90.5816 27.2295 97.0424 24.1943 105.888 24.1943C112.998 24.1944 118.852 26.5792 123.448 31.3486C128.131 36.1181 130.472 42.7087 130.472 51.1201V61H113.692V53.2012C113.692 48.8653 112.521 45.5701 110.18 43.3154C107.838 40.9741 104.717 39.8037 100.814 39.8037C96.4786 39.8037 93.0097 41.1477 90.4082 43.8359C87.8068 46.5242 86.5059 50.5563 86.5059 55.9326V61H69.7256V0H86.5059V33.2998ZM169.255 24.1943C178.794 24.1944 186.642 27.4896 192.799 34.0801C199.042 40.6705 202.164 48.822 202.164 58.5342C202.164 59.3382 202.134 60.1602 202.074 61H134.985C134.939 60.1901 134.914 59.3681 134.914 58.5342C134.914 48.7351 138.123 40.5839 144.54 34.0801C150.957 27.4895 159.196 24.1943 169.255 24.1943ZM292.055 61H274.233V0H292.055V61ZM331.267 24.1943C340.892 24.1944 349.043 27.5328 355.721 34.21C362.398 40.8005 365.737 48.9086 365.737 58.5342C365.737 59.3671 365.711 60.1892 365.661 61H348.822C348.912 60.2022 348.957 59.3801 348.957 58.5342C348.957 53.3313 347.266 49.0392 343.884 45.6572C340.502 42.2752 336.296 40.584 331.267 40.584C326.237 40.584 322.031 42.2752 318.649 45.6572C315.354 49.0392 313.706 53.3312 313.706 58.5342C313.706 59.3802 313.751 60.2022 313.838 61H297.002C296.953 60.1891 296.926 59.3671 296.926 58.5342C296.926 48.9086 300.222 40.8005 306.812 34.21C313.49 27.5328 321.641 24.1943 331.267 24.1943ZM386.777 61H369.997V26.0146H386.777V61ZM430.743 61H413.963V26.0146H430.743V61ZM653.296 53.8555C653.567 54.4372 653.723 54.8249 653.723 55.0576C653.723 57.3847 651.512 59.0524 647.091 60.0996V59.8672C650.038 55.8729 652.094 53.856 653.296 53.8555ZM169.255 39.2832C164.746 39.2832 161.016 40.4535 158.067 42.7949C155.119 45.0496 153.168 48.2585 152.214 52.4209H185.384C184.43 47.9983 182.435 44.7031 179.4 42.5352C176.452 40.3673 173.07 39.2833 169.255 39.2832ZM604.224 35.9854C604.831 36.7251 605.401 37.484 605.937 38.2598C604.602 41.8665 603.014 45.8633 601.17 50.248H600.976V50.0547C601.635 46.5641 602.295 43.4994 602.954 40.8232C603.382 39.1351 603.806 37.5228 604.224 35.9854ZM619.593 46.0596C618.584 46.0596 617.964 46.6414 617.809 47.8438C617.809 48.8909 618.39 49.4731 619.593 49.667C620.601 49.6669 621.182 49.0068 621.415 47.6494C620.988 46.5639 620.368 46.0597 619.593 46.0596ZM609.889 26.0146C609.594 27.1636 609.247 28.3904 608.851 29.6953L607.292 26.0146H609.889Z" fill="#4FF29A"/>
</svg>
