<svg width="68" height="68" viewBox="0 0 68 68" fill="none" xmlns="http://www.w3.org/2000/svg">
<rect width="68" height="68" fill="#FAC121"/>
<path d="M57.0469 27.1018C57.0476 26.7426 56.9772 26.3868 56.8397 26.0549C56.7023 25.7231 56.5005 25.4217 56.2461 25.1682L42.8301 11.7541C42.5762 11.5002 42.2747 11.2987 41.943 11.1613C41.6112 11.0239 41.2556 10.9531 40.8965 10.9531C40.5374 10.9531 40.1818 11.0239 39.8501 11.1613C39.5183 11.2987 39.2168 11.5002 38.9629 11.7541L33.3516 17.3654L21.9336 21.6486C21.4843 21.8168 21.0871 22.1003 20.782 22.4705C20.4769 22.8408 20.2746 23.2848 20.1953 23.758L15.6563 50.9924C15.6279 51.1605 15.6365 51.3328 15.6815 51.4972C15.7265 51.6616 15.8069 51.8143 15.917 51.9444C16.0271 52.0746 16.1642 52.1792 16.3189 52.2509C16.4736 52.3226 16.642 52.3597 16.8125 52.3596C16.8779 52.3593 16.9432 52.3541 17.0078 52.3439L44.2422 47.8049C44.7158 47.726 45.1602 47.5238 45.5308 47.2187C45.9014 46.9135 46.1852 46.5162 46.3535 46.0666L50.6348 34.6486L56.2481 29.0354C56.5023 28.7818 56.7038 28.4803 56.8409 28.1485C56.978 27.8166 57.048 27.4608 57.0469 27.1018ZM44.1563 45.2443C44.1323 45.3084 44.0918 45.365 44.039 45.4086C43.9863 45.4521 43.923 45.481 43.8555 45.4924L20.2285 49.4299L30.5547 39.1018C31.6141 39.7552 32.8766 39.9968 34.1024 39.7806C35.3282 39.5645 36.4319 38.9056 37.204 37.9293C37.976 36.9529 38.3625 35.727 38.2901 34.4844C38.2177 33.2418 37.6915 32.069 36.8114 31.1889C35.9312 30.3087 34.7585 29.7825 33.5159 29.7101C32.2732 29.6377 31.0473 30.0243 30.071 30.7963C29.0946 31.5683 28.4358 32.672 28.2196 33.8978C28.0035 35.1236 28.245 36.3861 28.8985 37.4455L18.5703 47.7756L22.5098 24.1428C22.5213 24.0759 22.5501 24.0131 22.5932 23.9607C22.6364 23.9083 22.6924 23.8681 22.7559 23.8439L33.7051 19.7424L48.2578 34.2951L44.1563 45.2443ZM30.4844 34.7814C30.4844 34.2406 30.6448 33.712 30.9452 33.2623C31.2457 32.8126 31.6727 32.4622 32.1724 32.2552C32.672 32.0483 33.2218 31.9941 33.7522 32.0996C34.2827 32.2051 34.7699 32.4655 35.1523 32.848C35.5347 33.2304 35.7951 33.7176 35.9006 34.248C36.0061 34.7784 35.952 35.3282 35.745 35.8279C35.5381 36.3275 35.1876 36.7545 34.7379 37.055C34.2883 37.3555 33.7596 37.5158 33.2188 37.5158C32.4936 37.5158 31.7981 37.2277 31.2853 36.7149C30.7725 36.2021 30.4844 35.5066 30.4844 34.7814ZM54.5879 27.3791L49.625 32.342L35.6563 18.3752L40.6211 13.4104C40.6574 13.374 40.7005 13.3452 40.7479 13.3256C40.7953 13.3059 40.8462 13.2958 40.8975 13.2958C40.9488 13.2958 40.9997 13.3059 41.0471 13.3256C41.0945 13.3452 41.1376 13.374 41.1739 13.4104L54.5879 26.8264C54.6242 26.8626 54.6531 26.9057 54.6727 26.9532C54.6924 27.0006 54.7025 27.0514 54.7025 27.1027C54.7025 27.1541 54.6924 27.2049 54.6727 27.2523C54.6531 27.2997 54.6242 27.3428 54.5879 27.3791Z" fill="#9A7100"/>
</svg>
