<svg width="68" height="68" viewBox="0 0 68 68" fill="none" xmlns="http://www.w3.org/2000/svg">
<rect width="68" height="68" fill="#4FF29A"/>
<path d="M31.9167 45.458C31.5023 45.458 31.1049 45.6226 30.8119 45.9157C30.5189 46.2087 30.3542 46.6061 30.3542 47.0205C30.3542 47.4349 30.5189 47.8323 30.8119 48.1254C31.1049 48.4184 31.5023 48.583 31.9167 48.583H36.0834C36.4978 48.583 36.8952 48.4184 37.1883 48.1254C37.4813 47.8323 37.6459 47.4349 37.6459 47.0205C37.6459 46.6061 37.4813 46.2087 37.1883 45.9157C36.8952 45.6226 36.4978 45.458 36.0834 45.458H31.9167Z" fill="#00A24A"/>
<path fill-rule="evenodd" clip-rule="evenodd" d="M25.6667 13.167C24.4235 13.167 23.2313 13.6609 22.3522 14.5399C21.4731 15.419 20.9792 16.6113 20.9792 17.8545V50.1462C20.9792 51.3894 21.4731 52.5816 22.3522 53.4607C23.2313 54.3398 24.4235 54.8337 25.6667 54.8337H42.3334C43.5766 54.8337 44.7689 54.3398 45.648 53.4607C46.5271 52.5816 47.0209 51.3894 47.0209 50.1462V17.8545C47.0209 16.6113 46.5271 15.419 45.648 14.5399C44.7689 13.6609 43.5766 13.167 42.3334 13.167H25.6667ZM24.1042 17.8545C24.1042 17.4401 24.2689 17.0427 24.5619 16.7496C24.8549 16.4566 25.2523 16.292 25.6667 16.292H42.3334C42.7478 16.292 43.1452 16.4566 43.4383 16.7496C43.7313 17.0427 43.8959 17.4401 43.8959 17.8545V50.1462C43.8959 50.5606 43.7313 50.958 43.4383 51.251C43.1452 51.544 42.7478 51.7087 42.3334 51.7087H25.6667C25.2523 51.7087 24.8549 51.544 24.5619 51.251C24.2689 50.958 24.1042 50.5606 24.1042 50.1462V17.8545Z" fill="#00A24A"/>
</svg>
