<svg width="68" height="68" viewBox="0 0 68 68" fill="none" xmlns="http://www.w3.org/2000/svg">
<rect width="68" height="68" fill="#FAC121"/>
<path d="M28.7917 42.3333C25.0069 42.3333 21.8042 41.0222 19.1833 38.4C16.5625 35.7778 15.2514 32.575 15.25 28.7917C15.2486 25.0083 16.5597 21.8056 19.1833 19.1833C21.8069 16.5611 25.0097 15.25 28.7917 15.25C32.5736 15.25 35.7771 16.5611 38.4021 19.1833C41.0271 21.8056 42.3375 25.0083 42.3333 28.7917C42.3333 30.3194 42.0903 31.7604 41.6042 33.1146C41.1181 34.4688 40.4583 35.6667 39.625 36.7083L51.2917 48.375C51.6736 48.7569 51.8646 49.2431 51.8646 49.8333C51.8646 50.4236 51.6736 50.9097 51.2917 51.2917C50.9097 51.6736 50.4236 51.8646 49.8333 51.8646C49.2431 51.8646 48.7569 51.6736 48.375 51.2917L36.7083 39.625C35.6667 40.4583 34.4688 41.1181 33.1146 41.6042C31.7604 42.0903 30.3194 42.3333 28.7917 42.3333ZM28.7917 38.1667C31.3958 38.1667 33.6097 37.2556 35.4333 35.4333C37.2569 33.6111 38.1681 31.3972 38.1667 28.7917C38.1653 26.1861 37.2542 23.9729 35.4333 22.1521C33.6125 20.3313 31.3986 19.4194 28.7917 19.4167C26.1847 19.4139 23.9715 20.3257 22.1521 22.1521C20.3326 23.9785 19.4208 26.1917 19.4167 28.7917C19.4125 31.3917 20.3243 33.6056 22.1521 35.4333C23.9799 37.2611 26.1931 38.1722 28.7917 38.1667Z" fill="#9A7100"/>
</svg>
