<svg width="776" height="468" viewBox="0 0 776 468" fill="none" xmlns="http://www.w3.org/2000/svg">
<rect width="775.3" height="468" fill="#5A1711"/>
<g clip-path="url(#clip0_808_160)">
<mask id="mask0_808_160" style="mask-type:luminance" maskUnits="userSpaceOnUse" x="197" y="82" width="382" height="304">
<path d="M579 82H197V386H579V82Z" fill="white"/>
</mask>
<g mask="url(#mask0_808_160)">
<path d="M532.554 376.997L524.613 376.997L520.836 346.396L532.556 346.398L532.554 376.997Z" fill="#FFB6B6"/>
<path d="M532.834 385.273L508.413 385.273V384.963C508.414 379.72 512.669 375.469 517.918 375.469L522.38 372.088L530.703 375.469L532.834 375.469L532.834 385.273Z" fill="#2F2E41"/>
<path d="M497.348 376.997L489.407 376.997L485.629 346.396L497.35 346.398L497.348 376.997Z" fill="#FFB6B6"/>
<path d="M497.628 385.273L473.207 385.273V384.963C473.208 379.72 477.463 375.469 482.712 375.469L487.174 372.088L495.496 375.469L497.628 375.469L497.628 385.273Z" fill="#2F2E41"/>
<path d="M493.564 206.227L539.38 207.191C539.38 207.191 547.617 220.681 541.329 239.711L542.033 245.011L539.139 253.201L537.693 278.254L539.139 282.108L538.174 289.335C538.174 289.335 542.033 337.033 532.387 361.121L520.813 360.64L516.472 297.789L518.884 293.189L518.401 291.262L512.614 262.355L506.827 277.29V285.589L501.521 291.744C501.521 291.744 503.451 348.595 498.145 360.158H485.187L480.301 283.072L485.124 238.266L484.159 235.375L485.606 233.93L484.642 229.112L493.564 206.227Z" fill="#2F2E41"/>
<path d="M513.096 118.301L527.082 114.929L530.94 124.083C530.94 124.083 550.903 134.682 551.867 149.136C551.867 149.136 554.572 160.699 552.16 165.998C549.749 171.298 539.622 188.161 539.622 188.161C539.622 188.161 548.785 217.55 546.373 218.995C543.962 220.44 486.571 217.55 486.571 214.659C486.571 211.768 496.122 181.416 496.122 181.416L498.145 129.382L511.167 124.564L513.096 118.301Z" fill="#3F3D56"/>
<path d="M550.382 236.9C547.455 235.426 546.277 231.861 547.752 228.937C547.901 228.643 548.076 228.371 548.264 228.114L540.481 174.81L551.255 175.154L556.892 227.09C558.934 228.821 559.612 231.778 558.353 234.273C556.879 237.197 553.31 238.374 550.382 236.9Z" fill="#FFB6B6"/>
<path d="M448.149 211.743C446.97 208.687 448.494 205.256 451.553 204.078C451.86 203.96 452.173 203.876 452.486 203.811L482.55 159.093L490.302 166.577L459.567 208.84C459.916 211.493 458.431 214.139 455.821 215.144C452.762 216.321 449.327 214.798 448.149 211.743Z" fill="#FFB6B6"/>
<path d="M530.749 161.365C527.705 150.918 532.761 140.258 543.653 140.31C546.801 140.325 549.247 141.237 549.925 143.763C552.298 152.605 553.591 165.952 553.591 165.952L556.406 180.162L554.701 183.113L558.256 192.636L556.532 197.141L556.159 220.148L547.478 219.666L537.913 202.127L534.255 199.955C534.255 199.955 537.192 171.597 531.351 163.431L530.749 161.365Z" fill="#3F3D56"/>
<path d="M491.864 135.653C496.941 126.025 509.936 123.745 517.735 131.341C519.989 133.537 521.114 135.891 519.845 138.179C515.402 146.185 505.105 154.805 505.105 154.805L492.425 175.17L489.147 176.109L485.081 185.425L476.367 195.66L464.825 201.74L458.073 194.995L459.508 186.324L476.882 163.197C476.882 163.197 489.384 147.484 490.861 137.557L491.864 135.653Z" fill="#3F3D56"/>
<path d="M515.753 115.485C516.073 115.523 516.392 115.552 516.708 115.567C517.694 115.62 518.668 115.564 519.607 115.405C522.458 114.949 525.048 113.6 527.047 111.621C529.16 109.533 530.607 106.747 530.997 103.575C531.914 96.0864 526.576 89.2654 519.08 88.3505C511.692 87.4433 504.958 92.6055 503.882 99.9216C503.865 100.035 503.848 100.143 503.836 100.256C502.921 107.749 508.253 114.566 515.753 115.485Z" fill="#FFB6B6"/>
<path d="M500.8 99.4204C502.742 100.38 505.915 97.3639 507.13 99.099C507.327 98.724 507.545 98.3614 507.76 98.0185C507.955 97.7116 508.234 97.0566 508.557 96.9444C508.148 97.9283 508.238 99.2608 508.662 100.403C510.577 101.117 513.084 99.535 514.857 97.6631C517.641 94.728 522.186 102.254 521.111 106.15C522.479 104.481 525.447 105.422 526.453 107.33C527.458 109.233 525.76 110.757 525.397 112.88L528.138 112.532C529.868 110.849 529.747 108.013 531.172 106.062C533.551 102.797 534.473 99.4662 532.684 96.0968C531.098 93.1176 530.95 89.2618 528.038 87.5442C529.31 86.923 524.787 87.8935 525.995 85.8691C527.209 83.8489 520.741 83.6037 520.319 84.686C518.471 82.4762 516.606 81.0193 514.333 82.7899C512.1 84.532 512.331 86.363 509.709 86.1989C508.478 86.1228 508.613 88.4148 507.882 89.4141C507.154 90.408 504.327 91.0461 504.189 90.9397C503.443 90.3561 500.902 95.3244 500.902 95.3244C500.902 95.3244 498.843 98.4483 500.8 99.4204Z" fill="#2F2E41"/>
<path d="M329.667 186.138C375.611 186.138 412.855 223.344 412.855 269.242C412.855 315.139 375.611 352.346 329.667 352.346C283.723 352.346 220.138 306.84 246.477 269.242C272.817 231.643 283.723 186.138 329.667 186.138Z" fill="#F2F2F2"/>
<path d="M441.009 190.091C440.263 190.091 439.656 190.697 439.656 191.443V234.684C439.656 235.429 440.263 236.035 441.009 236.035C441.755 236.035 442.362 235.429 442.362 234.684V191.443C442.362 190.697 441.755 190.091 441.009 190.091Z" fill="#3F3D56"/>
<path d="M213.761 157.66C213.015 157.66 212.408 158.266 212.408 159.011V169.822C212.408 170.567 213.015 171.173 213.761 171.173C214.507 171.173 215.114 170.567 215.114 169.822V159.011C215.114 158.266 214.507 157.66 213.761 157.66Z" fill="#3F3D56"/>
<path d="M213.761 190.091C213.015 190.091 212.408 190.697 212.408 191.443V212.388C212.408 213.133 213.015 213.739 213.761 213.739C214.507 213.739 215.114 213.133 215.114 212.388V191.443C215.114 190.697 214.507 190.091 213.761 190.091Z" fill="#3F3D56"/>
<path d="M213.761 219.819C213.015 219.819 212.408 220.426 212.408 221.171V242.116C212.408 242.861 213.015 243.467 213.761 243.467C214.507 243.467 215.114 242.861 215.114 242.116V221.171C215.114 220.426 214.507 219.819 213.761 219.819Z" fill="#3F3D56"/>
<path d="M335.077 115.094C334.331 115.094 333.724 115.7 333.724 116.445V137.39C333.724 138.135 334.331 138.741 335.077 138.741C335.823 138.741 336.43 138.135 336.43 137.39V116.445C336.43 115.7 335.823 115.094 335.077 115.094Z" fill="#3F3D56"/>
<path d="M542.303 374.289C543.7 374.376 544.472 372.642 543.416 371.632L543.31 371.214C543.324 371.18 543.338 371.147 543.352 371.113C544.765 367.748 549.554 367.771 550.954 371.141C552.198 374.134 553.782 377.13 554.171 380.294C554.346 381.69 554.268 383.113 553.957 384.483C556.871 378.125 558.405 371.182 558.405 364.2C558.405 362.445 558.308 360.691 558.111 358.942C557.95 357.51 557.727 356.087 557.439 354.678C555.879 347.058 552.503 339.801 547.632 333.74C545.29 332.461 543.338 330.462 542.158 328.067C541.734 327.203 541.402 326.273 541.246 325.326C541.512 325.361 542.25 321.307 542.049 321.059C542.42 320.495 543.085 320.215 543.491 319.666C545.508 316.934 548.287 317.411 549.738 321.124C552.836 322.686 552.867 325.278 550.965 327.77C549.755 329.355 549.589 331.502 548.527 333.198C548.636 333.339 548.751 333.474 548.86 333.614C550.862 336.179 552.594 338.938 554.055 341.835C553.641 338.615 554.251 334.735 555.289 332.234C556.472 329.385 558.688 326.985 560.64 324.522C562.984 321.563 567.791 322.854 568.204 326.605C568.208 326.641 568.212 326.678 568.216 326.714C567.926 326.877 567.642 327.051 567.365 327.234C565.782 328.28 566.329 330.73 568.204 331.019L568.246 331.026C568.142 332.068 567.962 333.102 567.7 334.12C570.204 343.792 564.799 347.315 557.081 347.473C556.91 347.56 556.744 347.647 556.574 347.73C557.356 349.93 557.981 352.186 558.444 354.473C558.859 356.493 559.147 358.535 559.309 360.587C559.509 363.175 559.492 365.776 559.273 368.358L559.287 368.267C559.842 365.422 561.388 362.764 563.633 360.922C566.978 358.178 571.704 357.167 575.312 354.961C577.05 353.899 579.275 355.271 578.972 357.283L578.957 357.379C578.42 357.597 577.896 357.851 577.389 358.134C577.099 358.298 576.816 358.471 576.538 358.654C574.955 359.7 575.502 362.15 577.377 362.439L577.42 362.445C577.45 362.45 577.476 362.455 577.507 362.459C576.585 364.645 575.301 366.675 573.693 368.424C572.128 376.868 565.404 377.669 558.212 375.21H558.207C557.422 378.632 556.273 381.974 554.796 385.159H542.608C542.565 385.024 542.525 384.885 542.486 384.749C543.613 384.819 544.749 384.753 545.858 384.548C544.954 383.44 544.05 382.323 543.145 381.215C543.124 381.193 543.106 381.171 543.089 381.15C542.63 380.582 542.167 380.019 541.708 379.452V379.451C541.68 377.709 541.889 375.974 542.303 374.289Z" fill="#F2F2F2"/>
<path d="M197 385.196C197 385.642 197.358 386 197.805 386H578.1C578.547 386 578.905 385.642 578.905 385.196C578.905 384.75 578.547 384.392 578.1 384.392H197.805C197.358 384.392 197 384.75 197 385.196Z" fill="#CCCCCC"/>
<path d="M293.294 263.64H246.477V262.289H293.294C297.361 262.289 300.669 258.983 300.669 254.92V223.298H302.022V254.92C302.022 259.728 298.107 263.64 293.294 263.64Z" fill="#680000"/>
<path d="M382.623 332.188H276.144V333.539H382.623V332.188Z" fill="#680000"/>
<path d="M450.181 254.604H393.307C390.237 254.604 387.74 252.11 387.74 249.043V192.92C387.74 189.854 390.237 187.36 393.307 187.36H450.181C453.25 187.36 455.747 189.854 455.747 192.92V249.043C455.747 252.11 453.25 254.604 450.181 254.604Z" fill="#E6E6E6"/>
<path d="M403.898 189.017C395.891 189.017 389.399 195.502 389.399 203.502V247.853C389.399 250.667 391.682 252.948 394.498 252.948H429.275C442.979 252.948 454.088 241.85 454.088 228.16V194.111C454.088 191.298 451.805 189.017 448.989 189.017H403.898Z" fill="white"/>
<path d="M436.976 205.326H406.392C405.808 205.326 405.334 204.852 405.334 204.269C405.334 203.686 405.808 203.212 406.392 203.212H436.976C437.56 203.212 438.034 203.686 438.034 204.269C438.034 204.852 437.56 205.326 436.976 205.326Z" fill="#E6E6E6"/>
<path d="M436.976 227.869H406.392C405.808 227.869 405.334 227.395 405.334 226.811C405.334 226.229 405.808 225.755 406.392 225.755H436.976C437.56 225.755 438.034 226.229 438.034 226.811C438.034 227.395 437.56 227.869 436.976 227.869Z" fill="#E6E6E6"/>
<path d="M449.396 216.605H393.972C393.388 216.605 392.914 216.13 392.914 215.547C392.914 214.965 393.388 214.49 393.972 214.49H449.396C449.979 214.49 450.454 214.965 450.454 215.547C450.454 216.13 449.979 216.605 449.396 216.605Z" fill="#E6E6E6"/>
<path d="M449.961 237.034H429.94C429.357 237.034 428.881 236.56 428.881 235.977C428.881 235.394 429.357 234.92 429.94 234.92H449.961C450.545 234.92 451.02 235.394 451.02 235.977C451.02 236.56 450.545 237.034 449.961 237.034Z" fill="#E6E6E6"/>
<path d="M330.719 366.427H285.557C283.12 366.427 281.137 364.446 281.137 362.011V317.446C281.137 315.011 283.12 313.03 285.557 313.03H330.719C333.156 313.03 335.139 315.011 335.139 317.446V362.011C335.139 364.446 333.156 366.427 330.719 366.427Z" fill="#E6E6E6"/>
<path d="M293.967 314.346C287.608 314.346 282.454 319.495 282.454 325.847V361.066C282.454 363.3 284.267 365.111 286.503 365.111H314.119C325 365.111 333.822 356.298 333.822 345.428V318.391C333.822 316.157 332.008 314.346 329.772 314.346H293.967Z" fill="white"/>
<path d="M320.234 327.296H295.947C295.485 327.296 295.107 326.92 295.107 326.457C295.107 325.994 295.485 325.617 295.947 325.617H320.234C320.697 325.617 321.074 325.994 321.074 326.457C321.074 326.92 320.697 327.296 320.234 327.296Z" fill="#E6E6E6"/>
<path d="M320.234 345.196H295.947C295.485 345.196 295.107 344.82 295.107 344.357C295.107 343.895 295.485 343.518 295.947 343.518H320.234C320.697 343.518 321.074 343.895 321.074 344.357C321.074 344.82 320.697 345.196 320.234 345.196Z" fill="#E6E6E6"/>
<path d="M330.096 336.252H286.085C285.622 336.252 285.245 335.875 285.245 335.412C285.245 334.949 285.622 334.573 286.085 334.573H330.096C330.558 334.573 330.935 334.949 330.935 335.412C330.935 335.875 330.558 336.252 330.096 336.252Z" fill="#E6E6E6"/>
<path d="M330.545 352.474H314.646C314.183 352.474 313.806 352.098 313.806 351.635C313.806 351.172 314.183 350.795 314.646 350.795H330.545C331.008 350.795 331.385 351.172 331.385 351.635C331.385 352.098 331.008 352.474 330.545 352.474Z" fill="#E6E6E6"/>
<path d="M299.154 222.957H265.754C263.952 222.957 262.486 221.492 262.486 219.691V186.733C262.486 184.932 263.952 183.468 265.754 183.468H299.154C300.956 183.468 302.422 184.932 302.422 186.733V219.691C302.422 221.492 300.956 222.957 299.154 222.957Z" fill="#E6E6E6"/>
<path d="M271.975 184.44C267.272 184.44 263.459 188.249 263.459 192.947V218.992C263.459 220.644 264.8 221.983 266.454 221.983H286.877C294.924 221.983 301.449 215.466 301.449 207.427V187.432C301.449 185.78 300.108 184.44 298.453 184.44H271.975Z" fill="white"/>
<path d="M291.399 194.019H273.438C273.096 194.019 272.817 193.74 272.817 193.398C272.817 193.055 273.096 192.777 273.438 192.777H291.399C291.742 192.777 292.02 193.055 292.02 193.398C292.02 193.74 291.742 194.019 291.399 194.019Z" fill="#E6E6E6"/>
<path d="M291.399 207.256H273.438C273.096 207.256 272.817 206.978 272.817 206.636C272.817 206.293 273.096 206.015 273.438 206.015H291.399C291.742 206.015 292.02 206.293 292.02 206.636C292.02 206.978 291.742 207.256 291.399 207.256Z" fill="#E6E6E6"/>
<path d="M298.692 200.642H266.145C265.802 200.642 265.524 200.363 265.524 200.021C265.524 199.678 265.802 199.4 266.145 199.4H298.692C299.035 199.4 299.314 199.678 299.314 200.021C299.314 200.363 299.035 200.642 298.692 200.642Z" fill="#E6E6E6"/>
<path d="M299.025 212.639H287.267C286.924 212.639 286.646 212.361 286.646 212.018C286.646 211.676 286.924 211.397 287.267 211.397H299.025C299.367 211.397 299.646 211.676 299.646 212.018C299.646 212.361 299.367 212.639 299.025 212.639Z" fill="#E6E6E6"/>
<path d="M396.623 264.511C400.358 264.511 403.387 261.487 403.387 257.755C403.387 254.024 400.358 250.999 396.623 250.999C392.888 250.999 389.86 254.024 389.86 257.755C389.86 261.487 392.888 264.511 396.623 264.511Z" fill="#680000"/>
<path d="M301.26 230.054C304.995 230.054 308.023 227.029 308.023 223.298C308.023 219.566 304.995 216.541 301.26 216.541C297.525 216.541 294.497 219.566 294.497 223.298C294.497 227.029 297.525 230.054 301.26 230.054Z" fill="#680000"/>
<path d="M333.724 322.618C337.46 322.618 340.488 319.592 340.488 315.861C340.488 312.129 337.46 309.104 333.724 309.104C329.989 309.104 326.961 312.129 326.961 315.861C326.961 319.592 329.989 322.618 333.724 322.618Z" fill="#680000"/>
<path d="M348.334 135.277C352.99 135.277 356.763 131.586 356.763 127.033C356.763 122.481 352.99 118.79 348.334 118.79C343.679 118.79 339.905 122.481 339.905 127.033C339.905 131.586 343.679 135.277 348.334 135.277Z" fill="#F2F2F2"/>
<path d="M415.908 124.213H370.536C368.98 124.213 367.714 122.948 367.714 121.393C367.714 119.838 368.98 118.573 370.536 118.573H415.908C417.465 118.573 418.731 119.838 418.731 121.393C418.731 122.948 417.465 124.213 415.908 124.213Z" fill="#F2F2F2"/>
<path d="M451.317 133.758H370.536C368.98 133.758 367.714 132.493 367.714 130.938C367.714 129.383 368.98 128.118 370.536 128.118H451.317C452.873 128.118 454.14 129.383 454.14 130.938C454.14 132.493 452.873 133.758 451.317 133.758Z" fill="#F2F2F2"/>
<path d="M226.325 169.922C229.338 169.922 231.781 167.533 231.781 164.587C231.781 161.641 229.338 159.252 226.325 159.252C223.312 159.252 220.87 161.641 220.87 164.587C220.87 167.533 223.312 169.922 226.325 169.922Z" fill="#F2F2F2"/>
<path d="M270.058 162.761H240.694C239.687 162.761 238.867 161.943 238.867 160.937C238.867 159.93 239.687 159.111 240.694 159.111H270.058C271.065 159.111 271.885 159.93 271.885 160.937C271.885 161.943 271.065 162.761 270.058 162.761Z" fill="#F2F2F2"/>
<path d="M292.974 168.939H240.694C239.687 168.939 238.867 168.12 238.867 167.115C238.867 166.108 239.687 165.289 240.694 165.289H292.974C293.982 165.289 294.801 166.108 294.801 167.115C294.801 168.12 293.982 168.939 292.974 168.939Z" fill="#F2F2F2"/>
<path d="M389.998 359.778C393.011 359.778 395.453 357.389 395.453 354.443C395.453 351.496 393.011 349.108 389.998 349.108C386.985 349.108 384.542 351.496 384.542 354.443C384.542 357.389 386.985 359.778 389.998 359.778Z" fill="#F2F2F2"/>
<path d="M433.731 352.618H404.367C403.359 352.618 402.54 351.799 402.54 350.793C402.54 349.787 403.359 348.968 404.367 348.968H433.731C434.738 348.968 435.558 349.787 435.558 350.793C435.558 351.799 434.738 352.618 433.731 352.618Z" fill="#F2F2F2"/>
<path d="M456.647 358.796H404.367C403.359 358.796 402.54 357.977 402.54 356.97C402.54 355.964 403.359 355.146 404.367 355.146H456.647C457.654 355.146 458.474 355.964 458.474 356.97C458.474 357.977 457.654 358.796 456.647 358.796Z" fill="#F2F2F2"/>
<path d="M324.425 187.381H323.072V251.567H324.425V187.381Z" fill="#E6E6E6"/>
<path d="M323.748 255.621C325.99 255.621 327.807 253.806 327.807 251.567C327.807 249.328 325.99 247.514 323.748 247.514C321.508 247.514 319.691 249.328 319.691 251.567C319.691 253.806 321.508 255.621 323.748 255.621Z" fill="#E6E6E6"/>
<path d="M385.295 302.24C387.536 302.24 389.352 300.425 389.352 298.186C389.352 295.947 387.536 294.132 385.295 294.132C383.053 294.132 381.237 295.947 381.237 298.186C381.237 300.425 383.053 302.24 385.295 302.24Z" fill="#E6E6E6"/>
<path d="M275.729 246.837C277.969 246.837 279.786 245.022 279.786 242.783C279.786 240.544 277.969 238.729 275.729 238.729C273.487 238.729 271.67 240.544 271.67 242.783C271.67 245.022 273.487 246.837 275.729 246.837Z" fill="#E6E6E6"/>
<path d="M274.229 242.789L252.037 243.461L252.078 244.812L274.27 244.141L274.229 242.789Z" fill="#E6E6E6"/>
<path d="M418.307 313.705H384.656V298.186H386.008V312.354H418.307V313.705Z" fill="#E6E6E6"/>
<path d="M274.063 291.102C276.304 291.102 278.121 289.286 278.121 287.048C278.121 284.809 276.304 282.994 274.063 282.994C271.822 282.994 270.005 284.809 270.005 287.048C270.005 289.286 271.822 291.102 274.063 291.102Z" fill="#E6E6E6"/>
<path d="M306.675 302.568H273.023V287.049H274.376V301.217H306.675V302.568Z" fill="#E6E6E6"/>
<path d="M409.642 271.623H248.011V272.974H409.642V271.623Z" fill="#E6E6E6"/>
</g>
</g>
<defs>
<clipPath id="clip0_808_160">
<rect width="382" height="304" fill="white" transform="translate(197 82)"/>
</clipPath>
</defs>
</svg>
