<svg width="50" height="50" viewBox="0 0 50 50" fill="none" xmlns="http://www.w3.org/2000/svg">
<g clip-path="url(#clip0_759_8)">
<path d="M47.9168 6.27095C47.9168 6.27095 43.7127 8.75428 41.3752 9.45845C40.1205 8.01576 38.4529 6.99322 36.5981 6.52913C34.7434 6.06503 32.7908 6.18177 31.0045 6.86356C29.2182 7.54535 27.6844 8.75929 26.6105 10.3412C25.5367 11.9231 24.9745 13.7967 25.0002 15.7085V17.7918C21.339 17.8867 17.7111 17.0747 14.4398 15.4281C11.1684 13.7815 8.35499 11.3514 6.25016 8.35428C6.25016 8.35428 -2.08317 27.1043 16.6668 35.4376C12.3763 38.35 7.26507 39.8104 2.0835 39.6043C20.8335 50.021 43.7502 39.6043 43.7502 15.646C43.7488 15.0654 43.6932 14.489 43.5835 13.9168C45.7085 11.8209 47.9168 6.27095 47.9168 6.27095Z" stroke="white" stroke-width="5" stroke-linecap="round" stroke-linejoin="round"/>
</g>
<defs>
<clipPath id="clip0_759_8">
<rect width="50" height="50" fill="white"/>
</clipPath>
</defs>
</svg>
