<svg width="50" height="50" viewBox="0 0 50 50" fill="none" xmlns="http://www.w3.org/2000/svg">
<g clip-path="url(#clip0_782_3)">
<path d="M47.9167 6.27095C47.9167 6.27095 43.7125 8.75428 41.375 9.45845C40.1203 8.01576 38.4528 6.99322 36.598 6.52913C34.7432 6.06503 32.7907 6.18177 31.0044 6.86356C29.2181 7.54535 27.6843 8.75929 26.6104 10.3412C25.5365 11.9231 24.9744 13.7967 25 15.7085V17.7918C21.3389 17.8867 17.711 17.0747 14.4396 15.4281C11.1683 13.7815 8.35487 11.3514 6.25004 8.35428C6.25004 8.35428 -2.08329 27.1043 16.6667 35.4376C12.3761 38.35 7.26495 39.8104 2.08337 39.6043C20.8334 50.021 43.75 39.6043 43.75 15.646C43.7487 15.0654 43.6931 14.489 43.5834 13.9168C45.7084 11.8209 47.9167 6.27095 47.9167 6.27095Z" stroke="black" stroke-width="5" stroke-linecap="round" stroke-linejoin="round"/>
</g>
<defs>
<clipPath id="clip0_782_3">
<rect width="50" height="50" fill="white"/>
</clipPath>
</defs>
</svg>
